<svg id="Layer_1" data-name="Layer 1" xmlns="http://www.w3.org/2000/svg" viewBox="0 0 504.92 128.29"><defs><style>.cls-1{fill:#3b3f56;}</style></defs><title>logo_s</title><path class="cls-1" d="M88.34,23.44,71.08,36.76c-6-9-13.5-14.25-23.63-14.25-8.25,0-15.38,3.75-15.38,12,0,7.13,5.44,10.13,14.44,14.25L60.58,55c19.51,8.63,30.57,18.57,30.57,36.2,0,23.07-18.75,37.14-43.32,37.14C26.45,128.29,9.19,117.41,0,100.9L17.44,87.78c6.75,9.38,15.57,18,30.38,18,10.88,0,17.63-5.06,17.63-13.69,0-8.06-6-10.88-15.75-15.38l-13.32-6c-17.63-8.07-30-18.19-30-35.64C6.38,13.69,24.19,0,47.45,0,67.15,0,81,9.94,88.34,23.44" transform="translate(0 0)"/><path class="cls-1" d="M223.85,109.91H173.21L166.27,126h-27.2L194.4,0h8.44L258,126H230.79ZM198.53,47.26,182,89.09h33Z" transform="translate(0 0)"/><rect class="cls-1" x="317.81" y="2.25" width="25.32" height="123.79"/><path class="cls-1" d="M431,59.08a30.08,30.08,0,0,1-9.19-22.32c0-20.44,16.32-34.51,39.2-34.51h43.89V126H449.78c-24,0-40.7-15-40.7-36.39,0-15.19,8.44-25.69,21.94-30.57M463.09,24C452.59,24,447,29.45,447,38.07c0,8.44,5.63,14.25,16.13,14.25h17.44V24Zm-11.44,80.27h28.88V73.15H451.65c-11.07,0-17.63,6-17.63,15.57,0,9.75,6.56,15.57,17.63,15.57" transform="translate(0 0)"/></svg>